<?xml version="1.0" standalone="no"?>
<!DOCTYPE svg PUBLIC "-//W3C//DTD SVG 20010904//EN"
 "http://www.w3.org/TR/2001/REC-SVG-20010904/DTD/svg10.dtd">
<svg version="1.0" xmlns="http://www.w3.org/2000/svg"
 width="381.000000pt" height="381.000000pt" viewBox="0 0 381.000000 381.000000"
 preserveAspectRatio="xMidYMid meet">
<metadata>
Created by potrace 1.14, written by Peter Selinger 2001-2017
</metadata>
<g transform="translate(0.000000,381.000000) scale(0.100000,-0.100000)"
fill="#000000" stroke="none">
<path d="M140 2283 c-47 -17 -90 -58 -111 -106 -21 -47 -24 -66 -23 -197 0
-131 2 -150 23 -193 34 -70 77 -99 148 -100 46 -1 65 3 90 21 70 50 90 202 27
218 -57 15 -85 -11 -89 -83 0 -13 -6 -28 -13 -35 -17 -17 -48 15 -58 60 -16
80 -6 251 18 279 20 25 44 14 60 -26 17 -43 51 -56 90 -37 48 24 26 132 -36
178 -25 18 -100 31 -126 21z m-11 -37 c-18 -6 -42 -25 -54 -42 -43 -67 -45
-69 -30 -31 8 21 20 44 27 51 21 21 72 45 82 39 5 -4 -6 -11 -25 -17z m-92
-136 c-1 -11 -5 -20 -9 -20 -10 0 -10 4 -2 24 8 22 13 20 11 -4z m203 -215
c-7 -9 -15 -13 -17 -11 -7 7 7 26 19 26 6 0 6 -6 -2 -15z"/>
<path d="M2463 2277 c-42 -19 -48 -57 -48 -292 0 -121 3 -232 8 -247 12 -45
51 -57 165 -55 88 2 103 5 116 22 19 25 20 56 2 80 -13 19 -35 22 -143 25 -21
0 -23 5 -23 49 l0 49 61 1 c70 0 99 18 99 61 0 43 -29 61 -100 61 l-62 1 4 66
3 67 45 -3 c64 -5 103 5 118 29 19 31 6 75 -26 88 -33 13 -189 12 -219 -2z
m37 -20 c-14 -7 -29 -22 -35 -35 -5 -12 -13 -22 -18 -22 -8 0 7 35 26 58 5 6
19 12 31 12 19 0 19 -1 -4 -13z m-40 -86 c0 -11 -3 -22 -7 -24 -5 -3 -8 6 -8
19 0 13 3 24 8 24 4 0 7 -9 7 -19z m-13 -73 c-3 -7 -5 -2 -5 12 0 14 2 19 5
13 2 -7 2 -19 0 -25z m186 -85 c-7 -2 -21 -2 -30 0 -10 3 -4 5 12 5 17 0 24
-2 18 -5z m58 -233 c13 -10 19 -19 13 -20 -6 0 -17 7 -24 15 -7 8 -16 12 -21
9 -5 -3 -9 0 -9 5 0 16 15 13 41 -9z"/>
<path d="M3267 2248 c-24 -19 -51 -98 -28 -84 5 3 12 21 15 40 4 19 13 37 22
40 13 5 13 3 -1 -16 -8 -13 -15 -33 -15 -46 0 -12 -7 -25 -15 -28 -8 -4 -15
-15 -15 -25 0 -14 -7 -19 -25 -19 -15 0 -31 -10 -41 -26 -16 -23 -16 -28 -1
-59 10 -21 24 -35 39 -37 22 -3 23 -7 25 -95 2 -135 34 -194 112 -208 89 -16
129 85 47 119 l-33 14 0 86 0 86 28 0 c33 0 69 31 69 59 0 30 -33 64 -63 64
-26 0 -27 2 -27 53 0 78 -45 117 -93 82z m-7 -128 c0 -11 -4 -20 -8 -20 -4 0
-8 9 -8 20 0 11 4 20 8 20 4 0 8 -9 8 -20z m-70 -49 c-5 -11 -7 -28 -3 -38 5
-14 3 -16 -7 -6 -14 13 -6 63 11 63 6 0 6 -6 -1 -19z m224 -307 c5 -14 4 -15
-9 -4 -17 14 -19 20 -6 20 5 0 12 -7 15 -16z"/>
<path d="M543 2119 c-92 -19 -144 -94 -146 -209 -4 -182 132 -282 264 -195 91
59 114 246 42 342 -38 52 -99 75 -160 62z m-21 -31 c-27 -13 -51 -35 -67 -62
-14 -22 -25 -35 -25 -28 0 36 82 113 120 111 8 0 -4 -9 -28 -21z m85 -118 c18
-35 16 -111 -3 -138 -34 -49 -84 -6 -84 71 0 84 57 127 87 67z m-177 -10 c0
-11 -4 -20 -9 -20 -5 0 -7 9 -4 20 3 11 7 20 9 20 2 0 4 -9 4 -20z m213 -119
c-6 -25 -43 -64 -52 -55 -3 4 0 9 7 11 7 3 19 18 27 34 18 33 25 38 18 10z"/>
<path d="M938 2117 c-85 -20 -141 -119 -133 -236 5 -74 33 -131 82 -168 79
-60 196 -25 243 74 47 99 21 254 -51 306 -35 25 -95 35 -141 24z m27 -17 c-3
-5 -16 -10 -27 -10 -24 0 -88 -63 -89 -88 0 -11 -3 -12 -6 -5 -7 18 32 77 59
90 46 23 72 28 63 13z m52 -137 c21 -52 13 -121 -18 -145 -24 -17 -24 -17 -46
8 -18 19 -23 37 -23 77 0 94 56 133 87 60z m-177 -3 c0 -11 -4 -20 -9 -20 -5
0 -7 9 -4 20 3 11 7 20 9 20 2 0 4 -9 4 -20z m189 -156 c-12 -13 -24 -22 -27
-20 -2 2 6 14 17 25 12 12 22 29 22 39 1 15 2 15 6 -1 3 -11 -5 -29 -18 -43z"/>
<path d="M1256 2107 c-26 -26 -28 -53 -29 -282 -1 -230 5 -276 37 -297 20 -14
56 -8 76 12 17 17 19 30 16 85 l-5 65 43 -4 c96 -10 169 73 173 196 4 144 -59
241 -155 238 -76 -3 -87 -2 -110 3 -17 4 -30 -1 -46 -16z m144 -7 c-14 -4 -32
-8 -40 -9 -13 -1 -13 0 0 9 8 5 26 9 40 9 l25 -1 -25 -8z m-123 -18 c-10 -10
-17 -34 -18 -53 -1 -19 -5 -45 -9 -59 -7 -19 -8 -14 -5 20 2 25 4 53 4 62 1 9
8 24 17 32 22 22 31 20 11 -2z m151 -115 c32 -66 13 -161 -31 -155 -29 4 -47
43 -47 105 0 80 49 112 78 50z m-181 -69 c-3 -7 -5 -2 -5 12 0 14 2 19 5 13 2
-7 2 -19 0 -25z m223 -57 c0 -6 -12 -23 -26 -38 -28 -30 -28 -29 10 35 9 14
16 16 16 3z"/>
<path d="M1763 2119 c-42 -12 -98 -70 -118 -124 -27 -70 -18 -172 20 -227 42
-60 104 -91 173 -85 93 7 141 69 91 116 -22 20 -28 21 -96 7 -11 -3 -27 1 -35
7 -7 7 -12 11 -10 10 9 -4 89 30 108 45 80 67 79 187 -2 234 -36 21 -89 28
-131 17z m17 -30 c-20 -6 -51 -28 -74 -52 -32 -34 -36 -36 -21 -12 26 46 66
75 100 74 l30 -1 -35 -9z m83 -120 c-6 -20 -41 -45 -50 -36 -2 3 5 10 16 17
13 7 21 21 21 38 0 19 3 23 9 13 5 -7 6 -22 4 -32z m-35 14 c-3 -19 -53 -41
-64 -30 -11 11 27 47 48 47 13 0 18 -6 16 -17z m-165 -23 c-3 -12 -8 -19 -11
-16 -5 6 5 36 12 36 2 0 2 -9 -1 -20z m252 -160 c3 -5 -1 -10 -9 -10 -9 0 -16
5 -16 10 0 6 4 10 9 10 6 0 13 -4 16 -10z"/>
<path d="M2068 2114 c-16 -8 -28 -20 -29 -27 0 -7 -2 -23 -4 -37 -4 -29 -7
-167 -6 -261 1 -51 5 -70 21 -87 25 -27 50 -28 81 -4 20 17 22 27 23 123 1 94
3 107 25 137 29 38 34 39 68 12 40 -31 103 -2 103 46 0 32 -47 82 -87 93 -31
9 -49 -2 -20 -12 6 -2 -5 -6 -25 -8 -20 -3 -34 -1 -32 3 3 4 12 8 20 8 8 0 14
4 14 9 0 10 -32 7 -49 -3 -5 -3 -24 0 -42 8 -29 12 -38 12 -61 0z m18 -36 c-9
-13 -16 -43 -16 -70 0 -27 -4 -48 -9 -48 -14 0 0 103 16 123 22 24 27 21 9 -5z
m-21 -157 c3 -5 1 -12 -5 -16 -5 -3 -10 1 -10 9 0 18 6 21 15 7z"/>
<path d="M2890 2114 c-76 -32 -113 -95 -116 -200 -3 -91 12 -140 57 -185 40
-40 84 -53 139 -41 20 5 47 4 63 -2 22 -9 30 -7 47 10 28 27 31 47 31 215 0
198 -5 208 -101 208 -25 0 -54 2 -65 4 -12 3 -36 -1 -55 -9z m37 -10 c-3 -3
-20 -13 -39 -22 -18 -10 -43 -35 -55 -57 -13 -22 -23 -33 -23 -25 0 28 40 81
73 95 34 15 54 19 44 9z m50 -134 c19 -37 16 -91 -7 -127 -36 -60 -75 -33 -74
52 1 90 50 136 81 75z m-176 -23 c-8 -8 -11 -7 -11 4 0 20 13 34 18 19 3 -7
-1 -17 -7 -23z m194 -127 c-9 -16 -22 -30 -29 -30 -9 0 -5 10 12 30 15 17 28
30 29 30 2 0 -3 -13 -12 -30z"/>
<path d="M3645 2124 c-6 -1 -22 -5 -37 -8 -40 -9 -86 -53 -97 -92 -20 -72 27
-141 126 -181 24 -10 43 -21 43 -25 0 -17 -58 -7 -75 12 -10 11 -29 20 -42 20
-29 0 -63 -33 -63 -61 0 -51 103 -114 168 -103 67 11 81 17 108 45 25 26 29
38 29 86 0 52 -2 57 -38 88 -21 19 -58 43 -82 54 -24 11 -46 25 -50 31 -12 19
29 10 66 -16 45 -31 82 -25 99 16 14 33 -4 71 -47 104 -25 18 -87 35 -108 30z
m-15 -31 c-40 -13 -65 -31 -82 -58 -10 -16 -18 -23 -18 -15 1 33 57 80 95 79
14 0 15 -2 5 -6z m-93 -118 c0 -8 -4 -12 -9 -9 -4 3 -8 9 -8 15 0 5 4 9 8 9 5
0 9 -7 9 -15z m183 -154 c0 -18 -18 -41 -34 -41 -5 0 -2 8 8 19 10 11 14 25
10 36 -5 13 -4 16 4 11 7 -4 12 -15 12 -25z m-178 -3 c-7 -7 -12 -23 -13 -37
0 -23 -1 -24 -8 -6 -8 21 6 55 23 55 6 0 5 -5 -2 -12z"/>
</g>
</svg>
